<svg xmlns="http://www.w3.org/2000/svg" viewBox="0 0 512.001 512.001"><path d="M126.025 307.918c-1.471-3.09-3.414-5.971-5.867-8.368-9.218-9.004-23.225-8.759-34.395-3.827-6.147 2.712-11.136 7.199-14.576 12.677a34.543 34.543 0 0 0-4.996 22.74c2.655 20.664 23.771 31.707 42.793 24.414 18.838-7.223 25.432-30.011 17.041-47.636zm-21.081 41.445c-14.777 4.822-29.678-3.75-32.596-19.057-1.979-10.385 2.137-20.07 9.389-26.354 14.695-7.123 33.511-7.713 39.206 11.073 4.211 13.889-1.562 29.627-15.999 34.338zm338.297-158.358a4.707 4.707 0 0 0-.775-1.437c6.014-6.462 9.074-15.311 5.738-24.244-10.872-29.116-61.112-12.236-49.688 17.372 1.24 3.215 3.314 6.164 3.79 9.577 1.133 8.119-5.876 15.749-9.297 22.51-3.97 7.846-8.96 16.209-10.383 25.022-2.647 16.395 13.898 19.856 26.881 20.382 9.092.368 18.106-.748 27.176-1.008 7.015-.202 15.087 1.255 20.376-4.498 13.474-14.658-9.137-49.401-13.818-63.676zm-37.956-20.661c2.29-4.997 6.742-9.346 11.806-11.226 6.058-2.249 12.794-2.471 18.024 1.837 5.773 4.753 7.642 12.33 4.014 18.922-5.229 9.504-19.784 15.186-29.311 8.664-6.885-4.713-7.392-11.96-4.533-18.197zm27.184 80.005c-5.617.296-11.216.776-16.845.839-5.799.064-13.429.761-18.749-1.88-8.394-4.168-5.298-11.453-2.446-18.831 4.445-11.501 9.343-22.787 13.75-34.317 4.96 2.86 11.016 4.088 17.339 2.904 3.368-.631 6.655-1.931 9.681-3.704 5.175 14.179 16.196 29.939 15.929 45.085-.206 11.662-10.49 9.473-18.659 9.904z"/><path d="M504.864 205.376c-.876-14.534.27-29.001.12-43.537-.09-8.688.858-25.174-5.298-32.414-5.364-6.309-17.575-5.149-25.126-5.889-3.414-.334-43.495-4.474-43.809-2.588.205-.897.23-1.886.014-2.955-2.452-12.153-1.151-25.886-2.389-38.342a615.204 615.204 0 0 1-2.525-36.826c-.422-10.8 2.19-31.925-10.334-37.575-6.458-2.913-16-2.034-22.778-2.393-12.641-.671-25.284-1.301-37.932-1.792-25.444-.989-50.925-1.47-76.38-.642-25.554.831-51.131 2.835-76.637 4.608-12.893.897-25.781 1.944-38.614 3.494-6.517.787-14.398.87-20.308 3.944-11.763 6.117-9.853 21.878-10.251 33.069-.803 22.614-1.851 45.788.742 68.347-.443.02-.892.046-1.335.065-1.659.024-3.315.019-4.974.049-31.586.579-64.555-.485-95.895 3.777-21.324 2.9-25.482 10.084-25.106 30.516.121 6.582-.412 14.117 3.693 19.757 5.893 8.096 16.605 6.353 25.359 6.088 16.916-.512 33.839.004 50.746.6 8.669.305 17.337.634 26.008.856 4.333.111 8.667.197 13.002.239 2.675.026 6.48-.224 7.77 2.768 1.616 3.751.256 9.89.186 13.872-.09 5.079.05 10.159.119 15.238.094 6.973-.662 13.935-.392 20.909.347 8.935 2.788 19.363-2.484 27.409-1.863 2.843-3.721 6.093-7.05 2.565-2.965-3.141-1.164-11.367-1.095-15.529.045-2.724 1.529-9.418-.32-11.637-.707-.849-1.899-1.076-2.993-1.231a102.531 102.531 0 0 0-44.817 3.633c-2.043.639.14 11.688.334 13.174.319 2.442 1.019 5.056 1.037 7.519.019 2.588-2.417 7.202-5.724 5.224-6.484-3.878-2.921-15.397-10.332-18.326-5.328-2.106-12.658 3.911-16.479 6.741-4.444 3.293-14.466 8.453-16.359 14.121-1.604 4.801 2.363 8.702 5.713 11.556 2.841 2.421 7.523 3.408 9.229 6.982.423.886.604 1.877.607 2.859.011 3.705-2.372 6.935-4.645 9.86l-16.673-5.345c-.918-.294-1.935-.585-2.818-.199-.904.395-1.38 1.373-1.781 2.275-1.814 4.072-3.868 8.092-5.126 12.385-1.238 4.225-1.236 9.131-1.996 13.548-.133.771-.241 1.646.243 2.26.479.607 1.343.711 2.114.768l15.517 1.15c1.182.088 2.502.244 3.252 1.162 1.371 1.679-.079 5.488-.19 7.416.061-1.066-17.132 3.369-18.127 3.639-.931.253-1.926.546-2.532 1.296-.918 1.136-.578 2.797-.191 4.205l6.233 22.708c.332 1.21.793 2.574 1.95 3.063.888.375 1.902.098 2.824-.181 5.319-1.612 10.5-3.789 15.726-5.447 1.136-.36 2.449-.353 3.443.303.883.583 1.392 1.575 1.862 2.522l2.789 5.619c.216.435.438.903.374 1.384-.079.599-.573 1.046-1.034 1.436-6.211 5.255-12.696 10.043-18.347 15.97 2.596 3.633 5.773 6.425 8.831 9.613 5.531 5.767 13.521 10.017 19.943 14.779.814.603 1.772 1.24 2.759 1.012.772-.178 1.322-.84 1.807-1.466 4.386-5.668 7.459-12.353 11.775-17.943 2.464 1.895 5.132 3.507 7.971 5.075-1.208-.667-6.056 19.616-5.806 21.154.318 1.964 16.059 2.498 17.98 2.52 9.573.108 19.165-.518 28.626-2.011 2.253-.356 4.825-.994 5.811-3.051.796-1.66.233-3.621-.34-5.371l-5.217-15.934c-.02-.059 9.004-2.623 9.63-2.814-.75.24 3.728 9.898 4.088 10.64 2.321 4.778 4.372 9.189 4.839 14.537.44 5.049.102 9.854-.151 14.945-.62 12.491-.51 25.011.09 37.501.522 10.856-1.351 28.606 7.989 36.595 10.955 9.37 34.191 6.431 47.182 5.855 22.634-1.002 45.057-2.266 67.735-2.306 46.416-.082 92.324-.641 138.615-4.245 12.874-1.002 21.841-2.457 24.312-16.719 3.152-18.196-2.757-36.413-1.176-54.66.064-.741.16-1.532.645-2.096.657-.764 1.787-.858 2.794-.885 7.536-.206 17.386.559 23.879-4.064 6.009-4.279 6.775-12.778 7.497-19.469 2.279-21.092.918-41.482.176-62.56-.303-8.631-1.009-18.035-9.599-22.419-3.989-2.035-8.38-2.484-12.777-2.77-2.885-.188-7.523.981-9.893-1.191-1.128-1.033-1.436-2.687-1.442-4.217-.026-6.972-1.004-13.917-.919-20.901.062-5.119.623-10.359 1.114-15.441 5.03-1.601 12.302-.017 17.563.246 14.987.748 29.92 2.718 44.102-3.585 15.738-7.176 19.951-24.115 20.737-40.053.463-9.486-.41-18.944-.98-28.401zM81.175 166.742c-11.963-.433-23.91-.802-35.882-.857-12.775-.059-30.961 3.812-31.587-14.372-.296-8.58-1.68-18.908 6.473-23.725 1.049-.62 2.22-1.14 3.458-1.599 11.825-1.683 23.733-.433 35.635-.807 13.179-.415 26.355-1.172 39.526-1.782 23.992-1.111 47.965-1.704 71.974-2.236 11.55-.256 23.081-.867 34.627-1.203 3.343-.097 7.827-.53 12.605-.853 3.747-.07 7.492-.174 11.239-.241.144-.003.249-.058.378-.082 4.885.151 9.384.801 12.569 2.459 9.49 4.94 6.926 28.065 1.456 34.892-5.609 7.001-15.918 7.009-24.14 7.571-46.057 3.146-92.184 4.506-138.331 2.835zm62.922 232.437c-.808.449-1.682.907-2.603.823-1.563-.142-2.555-1.75-2.995-3.257-1.045-3.585-1.952-7.112-3.356-10.592-.531-1.315-1.544-5.096-3.08-5.575-1.417-.442-5.631 1.746-7.095 2.206l-15.261 4.799 4.869 24.916a96.572 96.572 0 0 1-18.166 1.185c-1.265-.037-14.113-1.728-14.258-.505l2.103-17.676c.147-1.236.286-2.533-.179-3.687-.946-2.341-3.767-3.099-5.701-4.377-2.17-1.434-4.295-3.051-6.446-4.548-.567-.395-3.706-3.394-4.142-3.394a429.07 429.07 0 0 0-14.438 21.073c-1.41-1.059-16.683-12.523-16.372-12.968 2.376-3.4 4.606-6.568 7.518-9.496.834-.838 8.605-7.489 8.411-8.051-1.718-4.99-3.335-9.893-5.63-14.61-.502-1.032-2.968-8.423-4.032-8.599l-21.509 7.808c-1.599-4.84-3.074-9.6-4.192-14.574a54.093 54.093 0 0 1 18.76-2.565c.152-1.77 1.796-23.344 2.382-23.275l-21.906-2.577c.872-3.224 1.635-12.949 5.492-14.043 1.013-.287 2.091-.025 3.111.237l19.11 4.911c2.867-5.944 5.515-11.918 8.425-17.829.515-1.046 1.043-2.218.717-3.338-.238-.815-.886-1.433-1.508-2.01-3.192-2.961-7.128-5.805-9.871-9.181-2.03-2.498-3.687-5.308-5.869-7.752a159.76 159.76 0 0 1 18.438-12.805 78.745 78.745 0 0 0 4.858 9.356c1.358 2.235 3.032 6.003 5.024 7.685 4.799 4.051 15.449-.164 17.401-5.805.791-2.287.556-4.786.31-7.194l-1.233-12.1c-.09-.885-.151-1.875.415-2.561.527-.64 1.426-.8 2.247-.919 9.765-1.41 19.571-2.633 29.447-1.778-.146 8.943.194 17.774-.005 26.676l19.735 5.181c2.591-6.675 6.05-12.26 9.661-18.383a87.992 87.992 0 0 1 18.116 13.412c-3.35 3.162-6.474 6.571-9.76 9.728-2.416 2.322-6.391 3.49-7.394 7.028-.584 2.061.179 4.241.978 6.228a135.98 135.98 0 0 0 7.873 16.334c5.391-1.886 11.189-2.564 16.376-4.72 1.963-.816 4.46-1.299 6.026.138.681.625 1.051 1.512 1.36 2.384 1.084 3.062 1.652 6.279 2.215 9.479.012.478-8.105 2.093-8.766 2.254-4.682 1.141-9.506 2.631-13.672 5.124l1.265 16.419c.048.625.116 1.299.531 1.769.497.563 1.326.657 2.074.713 5.49.411 10.437 1.748 15.776 3.165.662.176 1.381.39 1.767.956.48.705.254 1.653.009 2.471l-3.146 10.528c-3.713-.535-7.437-1.273-11.038-2.335-2.753-.812-4.911-2.605-7.786-3.087-2.422-.406-4.54.616-5.353 3.04-1.802 5.371-6.948 13.173-5.303 19.057.684 2.448 3.602 4.098 5.325 5.885 2.84 2.946 5.67 5.904 8.504 8.856.924.962 1.921 2.16 1.644 3.465-.22 1.034-1.171 1.724-2.054 2.305a220.723 220.723 0 0 1-14.154 8.572zm2.814 7.761c2.775-1.564 5.351-3.594 7.148-4.925 5.178-3.835 12.761-6.901 15.834-12.914 2.314-4.528-.585-6.059-3.935-8.886a251.885 251.885 0 0 0-11.97-9.492l4.525-11.907c5.246 1.071 12.189 3.786 17.596 2.396 4.873-1.253 7.11-5.987 8.285-10.484 1.349-5.166 4.713-11.738 1.18-16.858-3.557-5.156-13.673-3.521-18.982-3.726-.762-.029-1.612-.098-2.121-.665-.437-.487-.487-1.197-.516-1.851l-.327-7.485c-.028-.64 18.728-2.626 20.661-2.814.936-.091 1.96-.223 2.601-.911.816-.876.663-2.249.442-3.426a126.964 126.964 0 0 0-6.408-22.422c-.399-1.027-.917-2.156-1.95-2.538-.732-.271-1.545-.091-2.304.092-5.911 1.421-11.894 2.335-17.808 3.805-.777.193-1.674.365-2.319-.11-.36-.266-.565-.686-.758-1.09l-4.331-9.097c.026.055 12.216-8.02 13.328-8.727 3.646-2.316 7.241-5.814 5.634-10.626-1.656-4.958-6.806-8.484-11.031-11.101-3.176-1.967-9.418-2.938-11.343-6.191-.616-1.04-.765-2.284-.874-3.488-.935-10.308-.527-20.854-.873-31.206-.385-11.476-.507-23.274-2.838-34.562 27.003-.35 54.105-1.342 81.007-3.482 15.808-1.258 28.525-6.504 31.816-23.436 1.608-8.273 1.703-19.693-2.019-27.522-3.751-7.889-9.815-8.753-17.88-9.428-30.544-2.555-62.434-.07-93.372 1.548 2.011-17.906 1.682-36.044 2.163-54.04.249-9.319-.191-19.194 1.141-28.416 1.35-9.347 8.312-8.274 16.862-9.316 40.671-4.955 82.425-7.406 123.383-8.292 20.02-.434 40.048-.115 60.059.57 9.982.343 19.96.779 29.936 1.267 8.858.432 21.859-1.187 30.311 1.614 5.062 1.678 2.543-.837 4.62 5.762 1.187 3.774.689 8.749.883 12.644.465 9.311.575 18.637 1.265 27.937.819 11.028 2.446 21.995 3.086 33.036.482 8.317-.374 16.426 1.093 24.629-3.58-.045-7.138-.101-10.64-.205-15.483-.46-43.335-5.606-54.785 8.485-5.538 6.816-6.38 16.635-6.775 25.032-.659 13.992-.638 28.099-.285 42.096.368 14.548.173 28.886-.181 43.417-.209 8.558-.539 20.458 5.694 27.378 5.576 6.191 14.819 6.092 22.445 6.826 11.713 1.126 23.491 1.715 35.221 2.697-1.79-.15 3.443 38.659-1.633 41.637-1.1.645-2.428.731-3.701.794-16.266.798-40.155-5.435-53.812 6.186-11.49 9.777-6.131 33.008-6.222 45.776-.078 10.865-.122 21.815-.624 32.668-.263 5.714-1.697 12.511 2.323 17.338 6.665 8.004 24.312 5.572 33.525 6.499 9.749.981 20.016 2.129 30.303 2.712-.633 3.721-.783 7.518-.715 11.341-6.416-.356-12.621.677-19.208 1.11-12.463.819-25.136.337-37.623.556-24.398.427-48.77.719-73.171.381-23.817-.329-47.631-.854-71.45-1.003-18.499-.116-38.451-3.045-57.077-1.024-.467-11.553-1.046-23.076-2.509-34.563zm258.672 83.266c-5.72 2.849-17.064 1.417-23.573 1.957-37.788 3.138-75.671 2.765-113.559 2.8-17.679.016-35.378-.161-53.031.916-17.24 1.053-34.862 3.093-52.091.891-9.932-1.269-10.823-5.129-11.685-14.544-.83-9.06-1.305-18.122-1.686-27.211-.11-2.623-.209-5.242-.309-7.863 41.861 1.857 83.605 3.203 125.549 3.991 23.426.44 46.826.375 70.252.067 11.334-.149 22.67-.184 34.005-.287 9.365-.085 19.559-2.3 28.928-1.154.507 6.047 1.266 12.099 1.503 17.991.274 6.823 2.562 19.028-4.303 22.446zM447.56 338.86c1.491 6.453.762 15.034 1.102 21.698.756 14.854 3.218 35.743-1.779 50.028-5.805 16.597-41.464 9.69-55.265 8.607-7.902-.62-15.778-1.719-23.685-2.212-9.236-.577-14.798.607-16.356-10.521-2.344-16.755.627-35.408-.018-52.429-.142-3.741-.884-8.267-.011-11.977 3.065-13.021 8.501-13.185 18.685-14.403 7.905-.946 15.823-.65 23.755-.515 2.622.045 5.247.014 7.873-.047 5.739.235 11.488.493 17.275.623 10.751.242 25.573-1.194 28.424 11.148zm44.545-84.641c-8.642 17.818-33.21 14.767-49.637 13.475-19.641-1.544-39.307-1.162-58.955-2.535-4.9-.343-11.997.184-16.583-1.51-9.956-3.679-12.251-10.273-12.516-19.579-.277-9.692.733-19.401.541-29.112-.414-20.902-1.606-42.016-.062-62.902 1.08-14.606 7.129-20.75 18.852-22.415 20.379 2.805 41.688 1.585 62.188 2.368 10.747.411 21.484 1.005 32.23 1.444 5.774.235 11.835-.057 17.536.878 6.888 1.131 7.356 2.619 8.444 9.307 3.377 20.762-.077 42.248 1.236 63.174.948 15.125 3.588 33.262-3.274 47.407z"/><path d="M425.036 396.417c-6.687-4.458-11.568-10.409-16.408-16.631 7.137-10.142 8.776-24.745 1.225-34.862-15.37-20.594-42.9-2.092-46.371 17.983-3.843 22.231 22.96 37.204 39.552 24.139 4.848 6.713 10.258 12.74 17.273 17.462 5.012 3.373 9.732-4.756 4.729-8.091zm-29.839-15.05c-10.924 5.928-22.45-1.776-23.568-13.431a22.58 22.58 0 0 1 .487-7.263l.014-.048c3.817-11.592 20.146-23.251 30.468-11.37 7.947 9.145 2.574 26.698-7.401 32.112zm-100.56 80.251c-5.048-6.702-14.737-6.454-21.738-3.341-5.627 2.503-10.531 7.199-12.323 13.208-5.128 17.192 16.841 23.486 28.369 15.038 7.495-5.494 11.821-16.765 5.692-24.905zm-16.362 21.238c-4.234.868-8.365-.584-10.246-4.696-.71-1.554-.828-3.229-.525-4.886 1.328-3.494 3.991-6.38 7.78-8.061 4.104-1.819 11.375-2.823 13.736 2.179 3.337 7.068-4.462 14.174-10.745 15.464zM227.798 76.284a719.443 719.443 0 0 0-1.436-36.829c-.109-1.692-.296-3.547-1.508-4.733-1.309-1.28-3.347-1.338-5.178-1.317-8.464.098-16.877.496-25.28.717l-22.867.6c-1.696.044-3.468.109-4.95.935-1.972 1.1-3.048 3.386-3.271 5.633-.27 2.722.238 5.301-.072 8.021-.343 3.013-.107 6.08-.267 9.106-.66 12.488 1.608 24.936.752 37.329-.069 1.005-.16 2.027.051 3.012.896 4.185 8.345 2.37 11.382 2.29 15.37-.409 30.736-1.132 46.104-1.636 1.764-.044 3.698-.154 4.99-1.356 1.441-1.341 1.565-3.542 1.583-5.51a716.69 716.69 0 0 0-.033-16.262zm-6.394 12.51c-.19.442-.434.861-.743 1.249-1.651 2.076-4.604 2.542-7.256 2.496-4.035-.07-7.777.62-11.763.64-9.433.046-18.896.907-28.363.12-1.271-6.862-1.219-13.446-.997-20.326.332-10.28-.321-20.522-.252-30.764.036-.69 16.267-1.349 17.392-1.417 4.566-.274 9.135-.51 13.707-.636 3.709-.102 9.816-1.581 12.397 1.685 1.565 1.98 1.924 4.626 2.226 7.132l4.021 33.312c.263 2.175.469 4.562-.369 6.509zm84.394-12.51a719.443 719.443 0 0 0-1.436-36.829c-.109-1.692-.296-3.547-1.508-4.733-1.309-1.28-3.347-1.338-5.177-1.317-8.464.098-16.877.496-25.28.717l-22.867.6c-1.696.044-3.468.109-4.95.935-1.972 1.1-3.048 3.386-3.271 5.633-.27 2.722.238 5.301-.072 8.021-.343 3.013-.107 6.08-.267 9.106-.66 12.488 1.608 24.936.752 37.329-.069 1.005-.16 2.027.051 3.012.896 4.185 8.345 2.37 11.382 2.29 15.37-.409 30.736-1.132 46.104-1.636 1.764-.044 3.698-.154 4.99-1.356 1.441-1.341 1.565-3.542 1.583-5.51.05-5.421.038-10.842-.034-16.262zm-6.394 12.51c-.19.442-.434.861-.743 1.249-1.651 2.076-4.604 2.542-7.256 2.496-4.035-.07-7.777.62-11.763.64-9.433.046-18.896.907-28.363.12-1.271-6.862-1.219-13.446-.997-20.326.332-10.28-.321-20.522-.252-30.764.036-.69 16.267-1.349 17.392-1.417 4.565-.274 9.135-.51 13.707-.636 3.709-.102 9.816-1.581 12.397 1.685 1.565 1.98 1.924 4.626 2.226 7.132l4.021 33.312c.263 2.175.469 4.562-.369 6.509zm84.394-12.51a719.443 719.443 0 0 0-1.436-36.829c-.109-1.692-.296-3.547-1.508-4.733-1.309-1.28-3.347-1.338-5.177-1.317-8.464.098-16.877.496-25.28.717l-22.867.6c-1.696.044-3.468.109-4.95.935-1.972 1.1-3.048 3.386-3.271 5.633-.27 2.722.238 5.301-.072 8.021-.343 3.013-.107 6.08-.267 9.106-.66 12.488 1.608 24.936.752 37.329-.069 1.005-.16 2.027.051 3.012.896 4.185 8.345 2.37 11.382 2.29 15.37-.409 30.736-1.132 46.104-1.636 1.764-.044 3.698-.154 4.99-1.356 1.441-1.341 1.565-3.542 1.583-5.51.05-5.421.038-10.842-.034-16.262zm-6.394 12.51c-.19.442-.434.861-.743 1.249-1.651 2.076-4.604 2.542-7.256 2.496-4.035-.07-7.777.62-11.763.64-9.433.046-18.896.907-28.363.12-1.271-6.862-1.219-13.446-.997-20.326.332-10.28-.321-20.522-.252-30.764.036-.69 16.267-1.349 17.392-1.417 4.565-.274 9.135-.51 13.707-.636 3.709-.102 9.816-1.581 12.397 1.685 1.565 1.98 1.924 4.626 2.226 7.132l4.021 33.312c.263 2.175.469 4.562-.369 6.509zm-134.606 148.99a719.443 719.443 0 0 0-1.436-36.829c-.109-1.692-.296-3.547-1.508-4.733-1.309-1.28-3.347-1.338-5.178-1.317-8.464.098-16.877.496-25.28.717l-22.867.6c-1.696.045-3.468.109-4.95.935-1.972 1.1-3.048 3.386-3.271 5.633-.27 2.722.238 5.301-.072 8.021-.343 3.013-.107 6.08-.267 9.106-.66 12.488 1.608 24.936.752 37.329-.069 1.005-.16 2.027.051 3.012.896 4.185 8.345 2.371 11.382 2.29 15.37-.409 30.736-1.132 46.104-1.636 1.764-.044 3.698-.154 4.99-1.356 1.441-1.341 1.565-3.542 1.583-5.51a716.69 716.69 0 0 0-.033-16.262zm-6.394 12.51c-.19.442-.434.861-.743 1.249-1.651 2.076-4.604 2.542-7.256 2.496-4.035-.07-7.777.62-11.763.64-9.433.046-18.896.907-28.363.12-1.271-6.862-1.219-13.445-.997-20.326.332-10.28-.321-20.521-.252-30.764.036-.69 16.267-1.349 17.392-1.417 4.566-.274 9.135-.51 13.707-.636 3.709-.102 9.816-1.581 12.397 1.685 1.565 1.98 1.924 4.626 2.226 7.132l4.021 33.312c.263 2.175.469 4.562-.369 6.509zm84.894-12.51a719.443 719.443 0 0 0-1.436-36.829c-.109-1.692-.296-3.547-1.508-4.733-1.309-1.28-3.347-1.338-5.177-1.317-8.464.098-16.877.496-25.28.717l-22.867.6c-1.696.045-3.468.109-4.95.935-1.972 1.1-3.048 3.386-3.271 5.633-.27 2.722.238 5.301-.072 8.021-.343 3.013-.107 6.08-.267 9.106-.66 12.488 1.608 24.936.752 37.329-.069 1.005-.16 2.027.051 3.012.896 4.185 8.345 2.371 11.382 2.29 15.37-.409 30.736-1.132 46.104-1.636 1.764-.044 3.698-.154 4.99-1.356 1.441-1.341 1.565-3.542 1.583-5.51.05-5.421.038-10.842-.034-16.262zm-6.394 12.51c-.19.442-.434.861-.743 1.249-1.651 2.076-4.604 2.542-7.256 2.496-4.035-.07-7.777.62-11.763.64-9.433.046-18.896.907-28.363.12-1.271-6.862-1.219-13.445-.997-20.326.332-10.28-.321-20.521-.252-30.764.036-.69 16.267-1.349 17.392-1.417 4.565-.274 9.135-.51 13.707-.636 3.709-.102 9.816-1.581 12.397 1.685 1.565 1.98 1.924 4.626 2.226 7.132l4.021 33.312c.263 2.175.469 4.562-.369 6.509zm6.894 68.99a719.443 719.443 0 0 0-1.436-36.829c-.109-1.692-.296-3.547-1.508-4.733-1.309-1.28-3.347-1.338-5.177-1.317-8.464.099-16.877.496-25.28.717l-22.867.6c-1.696.044-3.468.109-4.95.935-1.972 1.1-3.048 3.386-3.271 5.633-.27 2.722.238 5.301-.072 8.021-.343 3.013-.107 6.08-.267 9.106-.66 12.488 1.608 24.936.752 37.329-.069 1.005-.16 2.027.051 3.012.896 4.185 8.345 2.371 11.382 2.29 15.37-.409 30.736-1.132 46.104-1.636 1.764-.044 3.698-.154 4.99-1.356 1.441-1.341 1.565-3.542 1.583-5.51.05-5.421.038-10.842-.034-16.262zm-6.394 12.51c-.19.442-.434.861-.743 1.249-1.651 2.076-4.604 2.542-7.256 2.496-4.035-.07-7.777.62-11.763.64-9.433.046-18.896.907-28.363.12-1.271-6.862-1.219-13.445-.997-20.326.332-10.28-.321-20.521-.252-30.764.036-.69 16.267-1.349 17.392-1.417 4.565-.274 9.135-.51 13.707-.636 3.709-.102 9.816-1.581 12.397 1.685 1.565 1.98 1.924 4.626 2.226 7.132l4.021 33.312c.263 2.175.469 4.562-.369 6.509zm6.394 67.99a719.443 719.443 0 0 0-1.436-36.829c-.109-1.692-.296-3.547-1.508-4.733-1.309-1.28-3.347-1.338-5.177-1.317-8.464.099-16.877.496-25.28.717l-22.867.6c-1.696.044-3.468.109-4.95.935-1.972 1.1-3.048 3.386-3.271 5.633-.27 2.722.238 5.301-.072 8.021-.343 3.013-.107 6.08-.267 9.106-.66 12.488 1.608 24.936.752 37.329-.069 1.005-.16 2.027.051 3.012.896 4.185 8.345 2.371 11.382 2.29 15.37-.409 30.736-1.132 46.104-1.636 1.764-.044 3.698-.154 4.99-1.356 1.441-1.341 1.565-3.542 1.583-5.51.05-5.421.038-10.842-.034-16.262zm-6.394 12.51c-.19.442-.434.861-.743 1.249-1.651 2.076-4.604 2.542-7.256 2.496-4.035-.07-7.777.62-11.763.64-9.433.046-18.896.907-28.363.12-1.271-6.862-1.219-13.445-.997-20.326.332-10.28-.321-20.521-.252-30.764.036-.69 16.267-1.349 17.392-1.417 4.565-.274 9.135-.51 13.707-.636 3.709-.102 9.816-1.581 12.397 1.685 1.565 1.98 1.924 4.626 2.226 7.132l4.021 33.312c.263 2.175.469 4.562-.369 6.509z"/></svg>