<svg xmlns="http://www.w3.org/2000/svg" viewBox="0 0 325.592 325.592"><path d="M129.532 225.558a3.503 3.503 0 0 0-1.368-2.303l-37.7-28.193 37.7-28.193a3.503 3.503 0 0 0 .706-4.9l-5.989-8.008a3.499 3.499 0 0 0-4.899-.706l-52.157 39.004a3.5 3.5 0 0 0 0 5.606l52.157 39.004a3.477 3.477 0 0 0 2.093.697 3.494 3.494 0 0 0 2.806-1.403l5.989-8.008a3.507 3.507 0 0 0 .662-2.597zm130.234-33.299l-52.155-39.004a3.5 3.5 0 0 0-4.898.706l-5.989 8.008a3.5 3.5 0 0 0 .706 4.9l37.699 28.193-37.699 28.193a3.5 3.5 0 0 0-.706 4.9l5.989 8.008a3.495 3.495 0 0 0 2.806 1.403c.729 0 1.464-.227 2.093-.697l52.155-39.004a3.5 3.5 0 0 0-.001-5.606zm-63.502-59.823l-9.211-3.895a3.503 3.503 0 0 0-4.587 1.86l-55 130.084a3.5 3.5 0 0 0 1.861 4.587l9.211 3.895a3.504 3.504 0 0 0 4.587-1.861l55-130.084a3.5 3.5 0 0 0-1.861-4.586z"/><path d="M308.092 8.463H17.5c-9.649 0-17.5 7.851-17.5 17.5v273.666c0 9.649 7.851 17.5 17.5 17.5h290.592c9.649 0 17.5-7.851 17.5-17.5V25.963c0-9.65-7.851-17.5-17.5-17.5zm-34.627 26.833c7.995 0 14.5 6.505 14.5 14.5s-6.505 14.5-14.5 14.5-14.5-6.505-14.5-14.5 6.505-14.5 14.5-14.5zm-49.171 0c7.995 0 14.5 6.505 14.5 14.5s-6.505 14.5-14.5 14.5-14.5-6.505-14.5-14.5 6.505-14.5 14.5-14.5zm-179.895 7h58.5c4.142 0 7.5 3.357 7.5 7.5s-3.358 7.5-7.5 7.5h-58.5c-4.142 0-7.5-3.357-7.5-7.5s3.358-7.5 7.5-7.5zm253.397 244.51a2.286 2.286 0 0 1-2.284 2.283H30.08a2.287 2.287 0 0 1-2.284-2.283V98.336h270v188.47z"/></svg>